<svg width="44" height="44" viewBox="0 0 44 44" fill="none" xmlns="http://www.w3.org/2000/svg">
<path d="M39.8749 35.75C39.8749 36.1147 39.73 36.4644 39.4722 36.7223C39.2143 36.9801 38.8646 37.125 38.4999 37.125L5.49991 37.125C5.13524 37.125 4.78551 36.9801 4.52766 36.7223C4.2698 36.4644 4.12493 36.1147 4.12491 35.75L4.12491 8.25C4.12491 7.88533 4.26977 7.53559 4.52764 7.27773C4.7855 7.01987 5.13524 6.875 5.49991 6.875C5.86458 6.875 6.21432 7.01987 6.47218 7.27773C6.73004 7.53559 6.87491 7.88533 6.87491 8.25L6.87491 26.9308L15.5281 18.2777C15.786 18.0198 16.1357 17.875 16.5004 17.875C16.8651 17.875 17.2149 18.0198 17.4727 18.2777L22.0004 22.8055L32.4308 12.375H28.8754C28.5107 12.375 28.161 12.2301 27.9031 11.9723C27.6453 11.7144 27.5004 11.3647 27.5004 11C27.5004 10.6353 27.6453 10.2856 27.9031 10.0277C28.161 9.76987 28.5107 9.625 28.8754 9.625H35.7504C35.7957 9.625 35.841 9.62743 35.8861 9.63188C35.9063 9.63381 35.9261 9.63767 35.946 9.64052C35.9705 9.64396 35.995 9.64681 36.0191 9.65168C36.0419 9.65613 36.064 9.66242 36.0863 9.66805C36.1075 9.67333 36.1287 9.67803 36.1497 9.68433C36.1716 9.69096 36.1927 9.69918 36.214 9.7069C36.235 9.71437 36.2561 9.72125 36.2767 9.72981C36.2964 9.73795 36.3154 9.74761 36.3346 9.75667C36.3562 9.76674 36.3778 9.77631 36.3989 9.78764C36.4168 9.7972 36.4337 9.8082 36.4512 9.81852C36.4723 9.83111 36.4936 9.84302 36.5143 9.85687C36.5328 9.86929 36.5502 9.88314 36.5682 9.89649C36.5863 9.90991 36.6047 9.92259 36.6224 9.93702C36.6507 9.96035 36.6776 9.98536 36.704 10.0108C36.7102 10.0167 36.7167 10.0217 36.7227 10.0277C36.7292 10.0341 36.7346 10.0413 36.7409 10.0478C36.7659 10.0737 36.7905 10.1001 36.8133 10.1279C36.8283 10.1462 36.8415 10.1654 36.8554 10.1843C36.8681 10.2014 36.8814 10.2181 36.8934 10.2359C36.9077 10.2573 36.9202 10.2794 36.9332 10.3014C36.943 10.318 36.9535 10.3341 36.9626 10.3512C36.9744 10.3732 36.9844 10.3958 36.995 10.4183C37.0036 10.4365 37.0126 10.4545 37.0204 10.4732C37.0294 10.4949 37.0367 10.5171 37.0445 10.5391C37.0518 10.5595 37.0596 10.5795 37.0659 10.6003C37.0726 10.6224 37.0776 10.6449 37.0832 10.6673C37.0885 10.6885 37.0945 10.7093 37.0987 10.7308C37.1039 10.7569 37.107 10.7832 37.1107 10.8095C37.1132 10.8276 37.1167 10.8455 37.1185 10.8639C37.1231 10.9094 37.1254 10.9552 37.1254 11.0008V17.875C37.1254 18.2397 36.9805 18.5894 36.7227 18.8473C36.4648 19.1051 36.1151 19.25 35.7504 19.25C35.3857 19.25 35.036 19.1051 34.7781 18.8473C34.5203 18.5894 34.3754 18.2397 34.3754 17.875V14.3197L22.9727 25.7223C22.7149 25.9802 22.3651 26.125 22.0004 26.125C21.6357 26.125 21.286 25.9802 21.0281 25.7223L16.5004 21.1945L6.87491 30.8202L6.87491 34.375L38.4999 34.375C38.8646 34.375 39.2143 34.5199 39.4722 34.7777C39.73 35.0356 39.8749 35.3853 39.8749 35.75Z" fill="#8353E2"/>
</svg>
