<svg width="754" height="331" viewBox="0 0 754 331" fill="none" xmlns="http://www.w3.org/2000/svg">
<path d="M1 272.362C1 272.362 117.002 276.392 189 257.79C267.402 237.533 299.944 181.187 377 175.215C450.344 169.53 491.656 202.116 565 228.646C642.056 256.518 753 311.221 753 311.221" stroke="#00BDD6" stroke-width="2"/>
<path d="M1 208.689C1 208.689 132.895 355.731 189 325.265C283.295 274.062 285.281 47.2121 377 4.51676C435.681 -22.7991 489.265 149.12 565 150.237C639.665 151.339 753 10.0647 753 10.0647" stroke="#8353E2" stroke-width="2"/>
<path d="M1 243.218C1 243.218 120.441 104.527 189 116.926C270.841 131.728 288.481 270.054 377 311.221C438.881 339.999 508.147 332.186 565 291.791C658.547 225.325 753 44.0662 753 44.0662" stroke="#4069E5" stroke-width="2"/>
</svg>
