<svg width="40" height="40" viewBox="0 0 40 40" fill="none" xmlns="http://www.w3.org/2000/svg">
<g clip-path="url(#clip0_1_91)">
<g filter="url(#filter0_d_1_91)">
<path d="M29.23 18.47C33.4826 18.47 36.93 15.0226 36.93 10.77C36.93 6.51741 33.4826 3.07001 29.23 3.07001C24.9774 3.07001 21.53 6.51741 21.53 10.77C21.53 15.0226 24.9774 18.47 29.23 18.47Z" fill="#8353E2"/>
<path d="M29.23 36.93C33.4826 36.93 36.93 33.4826 36.93 29.23C36.93 24.9774 33.4826 21.53 29.23 21.53C24.9774 21.53 21.53 24.9774 21.53 29.23C21.53 33.4826 24.9774 36.93 29.23 36.93Z" fill="#4069E5"/>
<path d="M3.83502 16.15C3.83502 8.92062 9.69565 3.06 16.925 3.06V23.85C16.925 31.0794 11.0644 36.94 3.83502 36.94V16.15Z" fill="#00BDD6"/>
</g>
</g>
<defs>
<filter id="filter0_d_1_91" x="-0.164978" y="3.06" width="41.095" height="41.88" filterUnits="userSpaceOnUse" color-interpolation-filters="sRGB">
<feFlood flood-opacity="0" result="BackgroundImageFix"/>
<feColorMatrix in="SourceAlpha" type="matrix" values="0 0 0 0 0 0 0 0 0 0 0 0 0 0 0 0 0 0 127 0" result="hardAlpha"/>
<feOffset dy="4"/>
<feGaussianBlur stdDeviation="2"/>
<feComposite in2="hardAlpha" operator="out"/>
<feColorMatrix type="matrix" values="0 0 0 0 0 0 0 0 0 0 0 0 0 0 0 0 0 0 0.25 0"/>
<feBlend mode="normal" in2="BackgroundImageFix" result="effect1_dropShadow_1_91"/>
<feBlend mode="normal" in="SourceGraphic" in2="effect1_dropShadow_1_91" result="shape"/>
</filter>
<clipPath id="clip0_1_91">
<rect width="40" height="40" rx="4" fill="white"/>
</clipPath>
</defs>
</svg>
