<svg width="32" height="32" viewBox="0 0 32 32" fill="none" xmlns="http://www.w3.org/2000/svg">
<path d="M9.52057 0.642823C6.39416 0.634451 3.64291 2.28584 2.07048 4.78072C2.00077 4.89165 2.07868 5.03816 2.20783 5.03816H3.64906C3.74747 5.03816 3.83972 4.99421 3.90122 4.91677C4.04473 4.73886 4.19849 4.56724 4.36045 4.40398C5.02878 3.72375 5.80577 3.18794 6.67092 2.81538C7.56477 2.43026 8.51602 2.23352 9.49802 2.23352C10.48 2.23352 11.4313 2.42817 12.3251 2.81538C13.1903 3.18794 13.9673 3.72375 14.6356 4.40398C15.3039 5.08421 15.8267 5.87747 16.1937 6.75863C16.5729 7.67118 16.7636 8.64025 16.7636 9.64281C16.7636 10.6454 16.5709 11.6144 16.1937 12.527C15.8288 13.4081 15.3039 14.2014 14.6356 14.8816C13.9673 15.5619 13.1903 16.0977 12.3251 16.4702C11.4306 16.856 10.4691 17.0539 9.49802 17.0521C8.51602 17.0521 7.56477 16.8554 6.67092 16.4702C5.80747 16.0981 5.02285 15.5586 4.36045 14.8816C4.19849 14.7163 4.04678 14.5447 3.90122 14.3688C3.83972 14.2914 3.74541 14.2475 3.64906 14.2475H2.20783C2.07868 14.2475 1.99872 14.394 2.07048 14.5049C3.64086 16.9935 6.3798 18.6428 9.49802 18.6428C14.3404 18.6428 18.2725 14.664 18.3217 9.7349C18.3709 4.72631 14.4326 0.655382 9.52057 0.642823ZM6.92349 11.987V10.3963H0.486152C0.395947 10.3963 0.322144 10.3209 0.322144 10.2289V9.05676C0.322144 8.96467 0.395947 8.88932 0.486152 8.88932H6.92349V7.29863C6.92349 7.15839 7.0834 7.07886 7.19001 7.16677L10.0991 9.51095C10.1187 9.52661 10.1346 9.54662 10.1455 9.56947C10.1564 9.59231 10.162 9.61739 10.162 9.64281C10.162 9.66822 10.1564 9.6933 10.1455 9.71615C10.1346 9.73899 10.1187 9.759 10.0991 9.77467L7.19001 12.1188C7.0834 12.2047 6.92349 12.1272 6.92349 11.987Z" fill="#565E6C"/>
</svg>
