<svg width="24" height="24" viewBox="0 0 24 24" fill="none" xmlns="http://www.w3.org/2000/svg">
<path d="M18.857 11.9999C18.856 11.5061 18.8019 11.0138 18.6958 10.5316L21.0221 8.77015L19.3078 5.801L16.6138 6.93757C15.8843 6.26875 15.0184 5.76605 14.0758 5.46415L13.7141 2.57129L10.2855 2.57129L9.92383 5.46415C8.98126 5.76605 8.11537 6.26875 7.38583 6.93757L4.69182 5.801L2.97754 8.77015L5.30383 10.5316C5.08902 11.4986 5.08902 12.5011 5.30383 13.4681L2.97754 15.2296L4.69182 18.1987L7.38583 17.0621C8.11537 17.731 8.98126 18.2337 9.92383 18.5356L10.2855 21.4284H13.7141L14.0758 18.5356C15.0184 18.2337 15.8843 17.731 16.6138 17.0621L19.3078 18.1987L21.0221 15.2296L18.6958 13.4681C18.8019 12.9859 18.856 12.4936 18.857 11.9999Z" stroke="#565E6C" stroke-width="2.05714" stroke-miterlimit="10" stroke-linecap="square"/>
</svg>
