<svg width="44" height="44" viewBox="0 0 44 44" fill="none" xmlns="http://www.w3.org/2000/svg">
<g opacity="0.2">
<path d="M22 38.5C31.1127 38.5 38.5 31.1127 38.5 22C38.5 12.8873 31.1127 5.5 22 5.5C12.8873 5.5 5.5 12.8873 5.5 22C5.5 31.1127 12.8873 38.5 22 38.5Z" fill="#4069E5"/>
</g>
<path d="M22 4.125C18.4647 4.125 15.0087 5.17335 12.0692 7.13748C9.12966 9.10161 6.83858 11.8933 5.48566 15.1595C4.13274 18.4258 3.77876 22.0198 4.46847 25.4872C5.15818 28.9547 6.86061 32.1397 9.36047 34.6395C11.8603 37.1394 15.0454 38.8418 18.5128 39.5315C21.9802 40.2212 25.5742 39.8673 28.8405 38.5143C32.1067 37.1614 34.8984 34.8703 36.8625 31.9308C38.8267 28.9913 39.875 25.5353 39.875 22C39.8696 17.2609 37.9847 12.7174 34.6336 9.36639C31.2826 6.01534 26.7391 4.13036 22 4.125ZM22 37.125C19.0086 37.125 16.0843 36.2379 13.597 34.576C11.1097 32.914 9.17111 30.5518 8.02633 27.7881C6.88155 25.0244 6.58203 21.9832 7.16563 19.0493C7.74923 16.1153 9.18975 13.4203 11.305 11.305C13.4203 9.18974 16.1153 7.74922 19.0493 7.16562C21.9832 6.58202 25.0244 6.88155 27.7881 8.02632C30.5518 9.1711 32.914 11.1097 34.576 13.597C36.2379 16.0843 37.125 19.0086 37.125 22C37.1205 26.01 35.5255 29.8545 32.69 32.69C29.8545 35.5255 26.01 37.1205 22 37.125Z" fill="#4069E5"/>
<path d="M29.8348 24.9341C29.6785 24.8437 29.5059 24.785 29.3269 24.7612C29.1479 24.7375 28.966 24.7493 28.7915 24.7959C28.617 24.8425 28.4535 24.923 28.3101 25.0328C28.1668 25.1426 28.0465 25.2795 27.956 25.4358C27.2057 26.7321 26.0544 27.7495 24.6757 28.3346C23.4154 28.8677 22.0247 29.0122 20.6818 28.7496C19.339 28.487 18.1051 27.8292 17.1386 26.8607C16.7132 26.4355 16.3452 25.9565 16.044 25.4359C15.8614 25.1203 15.5608 24.8901 15.2085 24.796C14.8562 24.7019 14.4809 24.7516 14.1652 24.9343C13.8496 25.1169 13.6194 25.4174 13.5253 25.7697C13.4312 26.1221 13.481 26.4974 13.6636 26.813C14.7131 28.6265 16.3239 30.0495 18.253 30.8674C20.4154 31.7791 22.8362 31.8702 25.061 31.1237C27.2858 30.3772 29.1616 28.8443 30.3364 26.8128C30.519 26.4972 30.5688 26.1219 30.4747 25.7696C30.3806 25.4173 30.1504 25.1167 29.8348 24.9341Z" fill="#4069E5"/>
</svg>
